PathFileType	4	(X/Y/Z)	/Users/itak/Documents/Research/Walk-IL/dataset/trc/00500_00183.trc
DataRate	CameraRate	NumFrames	NumMarkers	Units	OrigDataRate	OrigDataStartFrame	OrigNumFrames
100.000000	100.000000	4	53	mm	100.000000	269	718
Frame#	Time	RPSI			LPSI			L3			STRN			T10			C7			CLAV			RBAK			LBAK			LSHO			LUPA			LAEL			LAOL			LWTS			LWPS			LFRA			LIFD			LHPS			LHTS			RSHO			RUPA			RAEL			RAOL			RWTS			RWPS			RFRA			RIFD			RHTS			RHPS			RBHD			LFHD			RFHD			LBHD			LHIP			RHIP			RASI			LASI			LKNE			LTHI			LANK			LTIP			LTOE			LMT1			LMT5			LHEE			RKNE			RTHI			RANK			RTIP			RTOE			RMT1			RMT5			RHEE			
		X1	Y1	Z1	X2	Y2	Z2	X3	Y3	Z3	X4	Y4	Z4	X5	Y5	Z5	X6	Y6	Z6	X7	Y7	Z7	X8	Y8	Z8	X9	Y9	Z9	X10	Y10	Z10	X11	Y11	Z11	X12	Y12	Z12	X13	Y13	Z13	X14	Y14	Z14	X15	Y15	Z15	X16	Y16	Z16	X17	Y17	Z17	X18	Y18	Z18	X19	Y19	Z19	X20	Y20	Z20	X21	Y21	Z21	X22	Y22	Z22	X23	Y23	Z23	X24	Y24	Z24	X25	Y25	Z25	X26	Y26	Z26	X27	Y27	Z27	X28	Y28	Z28	X29	Y29	Z29	X30	Y30	Z30	X31	Y31	Z31	X32	Y32	Z32	X33	Y33	Z33	X34	Y34	Z34	X35	Y35	Z35	X36	Y36	Z36	X37	Y37	Z37	X38	Y38	Z38	X39	Y39	Z39	X40	Y40	Z40	X41	Y41	Z41	X42	Y42	Z42	X43	Y43	Z43	X44	Y44	Z44	X45	Y45	Z45	X46	Y46	Z46	X47	Y47	Z47	X48	Y48	Z48	X49	Y49	Z49	X50	Y50	Z50	X51	Y51	Z51	X52	Y52	Z52	X53	Y53	Z53	

270	2.69	-875.8207397460938	962.6448364257812	-278.0846862792969	-826.55078125	956.414306640625	-391.3790283203125	-848.3900756835938	1030.888793945312	-341.706298828125	-643.8804931640625	1184.962524414062	-269.9925231933594	-863.6464233398438	1133.818969726562	-345.91748046875	-818.952880859375	1363.690673828125	-326.28662109375	-675.1441040039062	1281.15966796875	-279.8209533691406	-895.244140625	1242.654174804688	-262.4761962890625	-815.81494140625	1312.226684570312	-418.6043701171875	-699.3163452148438	1355.191040039062	-455.5348815917969	-692.197021484375	1230.468627929688	-519.8229370117188	-682.4908447265625	1019.7451171875	-543.0638427734375	-776.7323608398438	1015.825256347656	-511.8088073730469	-632.9478759765625	824.6365966796875	-474.3575439453125	-687.3335571289062	795.9317626953125	-545.8372192382812	-672.0247802734375	934.9644165039062	-539.5629272460938	-650.9615478515625	667.8677978515625	-467.6129760742188	-673.2559204101562	740.0739135742188	-532.498046875	-624.7715454101562	745.3857421875	-489.1863403320312	-813.6693115234375	1354.404541015625	-168.2201538085938	-847.6132202148438	1286.4775390625	-119.2140045166016	-842.2785034179688	1018.291564941406	-72.19670104980469	-884.0994873046875	999.37744140625	-120.7214431762695	-720.2139892578125	825.9593505859375	-85.33963775634766	-801.2008056640625	797.17578125	-52.42911911010742	-834.7085571289062	963.8862915039062	-64.16240692138672	-705.9141845703125	667.103759765625	-83.87058258056641	-702.9948120117188	733.2161254882812	-58.34219741821289	-772.8821411132812	725.34130859375	-47.36051559448242	-811.861083984375	1509.93408203125	-230.6752166748047	-634.8341064453125	1577.226196289062	-296.2615051269531	-692.51416015625	1561.318237304688	-183.6693115234375	-752.4757690429688	1526.891235351562	-377.7541198730469	-681.4225463867188	873.7086181640625	-470.5995178222656	-823.4036865234375	869.607177734375	-119.1248474121094	-706.825439453125	912.8511352539062	-146.7661590576172	-620.6511840820312	907.313720703125	-373.0230102539062	-728.2928466796875	453.4012451171875	-441.0828247070312	-682.1840209960938	608.5631103515625	-445.1226196289062	-1012.670715332031	141.2259979248047	-566.9053344726562	-817.6827392578125	336.639892578125	-488.9137573242188	-891.5420532226562	37.02742004394531	-466.1384887695312	-957.82861328125	63.28299713134766	-450.7432250976562	-931.495849609375	68.19027709960938	-554.4462890625	-1067.284545898438	166.0877990722656	-518.0872192382812	-727.4552001953125	487.0010681152344	-140.1372222900391	-783.2640380859375	741.2702026367188	-102.8391723632812	-754.4418334960938	50.0709228515625	-176.6860656738281	-699.9296875	340.4547424316406	-146.0757293701172	-550.6824951171875	43.40481567382812	-146.553466796875	-599.0188598632812	47.54468154907227	-205.27978515625	-653.728271484375	46.62514495849609	-124.4519653320312	-785.6133422851562	38.92552185058594	-239.3947448730469	
271	2.7	-871.3518676757812	963.0092163085938	-273.6836547851562	-822.3333129882812	956.6024780273438	-387.1603393554688	-844.0239868164062	1031.109375	-337.3423767089844	-639.7753295898438	1185.447021484375	-265.6354064941406	-859.3599853515625	1134.07763671875	-341.3796081542969	-815.0297241210938	1364.003295898438	-322.0443420410156	-671.1128540039062	1281.624755859375	-275.5439147949219	-891.1487426757812	1242.954956054688	-258.091064453125	-811.9013061523438	1312.489013671875	-414.3584899902344	-695.4515380859375	1355.470947265625	-451.3114013671875	-688.2378540039062	1230.68115234375	-515.4403076171875	-678.1031494140625	1019.913452148438	-538.1382446289062	-772.4323120117188	1015.912475585938	-507.1351623535156	-627.86181640625	825.4599609375	-468.7356872558594	-681.7654418945312	796.2127685546875	-540.3329467773438	-667.3299560546875	935.2920532226562	-534.4212036132812	-644.9520874023438	668.6262817382812	-461.5812377929688	-667.4284057617188	740.4815063476562	-526.7351684570312	-618.9769897460938	746.2608642578125	-483.2859802246094	-809.655517578125	1354.896484375	-163.9569702148438	-843.4976806640625	1286.981323242188	-114.9038391113281	-838.0939331054688	1018.804565429688	-67.76953887939453	-879.8312377929688	999.8834228515625	-116.3348922729492	-715.9249877929688	826.48583984375	-80.71990966796875	-796.9908447265625	797.7158813476562	-47.86276245117188	-830.53759765625	964.4114379882812	-59.69365692138672	-701.616943359375	667.64697265625	-79.23853302001953	-698.7357177734375	733.7586059570312	-53.68269348144531	-768.638916015625	725.8590698242188	-42.79233551025391	-807.92138671875	1510.465209960938	-226.7176818847656	-631.0860595703125	1577.712036132812	-292.9305114746094	-688.51318359375	1562.120239257812	-180.1834106445312	-748.8656005859375	1527.040771484375	-374.0414733886719	-676.7765502929688	873.971923828125	-466.0396423339844	-818.8986206054688	869.7769775390625	-114.8176040649414	-702.3040161132812	913.1199340820312	-142.3634643554688	-616.4895629882812	907.8314208984375	-368.6900329589844	-717.173095703125	452.7877197265625	-435.8452453613281	-674.1110229492188	608.597412109375	-440.2073364257812	-1006.82373046875	147.5616149902344	-564.3076171875	-807.7102661132812	337.9993896484375	-484.4225769042969	-890.237060546875	36.61495208740234	-465.7354125976562	-955.0073852539062	65.57593536376953	-449.6404113769531	-928.7216186523438	71.10537719726562	-553.3643188476562	-1059.969482421875	173.7977294921875	-514.8292846679688	-724.8148803710938	486.5420227050781	-137.3185424804688	-779.1365966796875	741.2039184570312	-98.87134552001953	-754.3638916015625	50.03127288818359	-176.5960083007812	-698.181640625	339.8975219726562	-144.3753967285156	-550.5582275390625	43.06645202636719	-146.5221099853516	-598.953369140625	47.43083953857422	-205.1077423095703	-653.6691284179688	46.33893966674805	-124.2408905029297	-785.5521240234375	39.04161834716797	-239.3151092529297	
272	2.71	-867.0040893554688	963.32421875	-269.3338012695312	-818.28515625	956.7271118164062	-383.0080261230469	-839.7906494140625	1031.304809570312	-333.0408630371094	-635.702880859375	1185.87060546875	-261.4186706542969	-855.1558227539062	1134.324462890625	-336.8651733398438	-811.1226196289062	1364.290283203125	-317.8495178222656	-667.0885620117188	1282.032348632812	-271.3871765136719	-887.0791625976562	1243.24560546875	-253.7197265625	-808.0623779296875	1312.724243164062	-410.1549377441406	-691.679931640625	1355.695068359375	-447.1986694335938	-684.4201049804688	1230.829711914062	-511.1646118164062	-673.8197021484375	1020.02490234375	-533.275634765625	-768.2301635742188	1015.924743652344	-502.5217590332031	-622.7118530273438	826.3662719726562	-463.1729125976562	-676.1005859375	796.474853515625	-534.8467407226562	-662.6754760742188	935.6029663085938	-529.3322143554688	-638.5595703125	669.4599609375	-455.5388488769531	-661.4228515625	740.876708984375	-520.9619750976562	-612.9161987304688	747.2543334960938	-477.3997497558594	-805.5885009765625	1355.348754882812	-159.7483215332031	-839.3209838867188	1287.452270507812	-110.626953125	-833.8841552734375	1019.300109863281	-63.34696960449219	-875.6038208007812	1000.367370605469	-111.8951568603516	-711.6637573242188	826.9686889648438	-76.19106292724609	-792.7845458984375	798.245849609375	-43.28496932983398	-826.3385009765625	964.9125366210938	-55.23860549926758	-697.3681030273438	668.1380004882812	-74.61268615722656	-694.4771728515625	734.284423828125	-49.09019470214844	-764.3965454101562	726.3721313476562	-38.19660186767578	-803.962646484375	1510.937133789062	-222.7900695800781	-627.3370971679688	1578.148559570312	-289.649658203125	-684.4959106445312	1562.85009765625	-176.7478942871094	-745.25244140625	1527.157470703125	-370.3719177246094	-672.2744750976562	874.1668701171875	-461.5404663085938	-814.4274291992188	869.8910522460938	-110.5714797973633	-697.8571166992188	913.333740234375	-138.0766448974609	-612.4714965820312	908.3245849609375	-364.4974365234375	-705.6648559570312	452.2374572753906	-430.5614013671875	-666.0905151367188	608.6622924804688	-435.37353515625	-1000.41650390625	154.0982360839844	-561.424072265625	-797.208740234375	339.4539794921875	-479.8114624023438	-888.7870483398438	36.04430389404297	-465.2418518066406	-951.849609375	68.05613708496094	-448.4170227050781	-925.69482421875	74.26712036132812	-552.1414184570312	-1051.94091796875	181.6842041015625	-511.2770385742188	-722.2139892578125	486.0594177246094	-134.6025238037109	-775.05615234375	741.093017578125	-94.94782257080078	-754.2789916992188	50.00471496582031	-176.5477752685547	-696.4539794921875	339.3307189941406	-142.7826995849609	-550.453857421875	42.81740951538086	-146.513671875	-598.8916015625	47.33039855957031	-204.9791564941406	-653.6117553710938	46.12446975708008	-124.0727691650391	-785.498291015625	39.1527099609375	-239.26708984375	
273	2.72	-862.7833862304688	963.5783081054688	-265.0382080078125	-814.4088134765625	956.7831420898438	-378.9183654785156	-835.7020874023438	1031.4794921875	-328.7980651855469	-631.6614379882812	1186.236572265625	-257.3512268066406	-851.0372314453125	1134.561767578125	-332.3677673339844	-807.2313232421875	1364.5537109375	-313.7040405273438	-663.0703735351562	1282.384155273438	-267.3605346679688	-883.0350341796875	1243.528930664062	-249.3607940673828	-804.3021240234375	1312.928344726562	-405.9940185546875	-688.004150390625	1355.863159179688	-443.2028198242188	-680.7411499023438	1230.91650390625	-507.000244140625	-669.6441040039062	1020.087158203125	-528.489501953125	-764.12890625	1015.865966796875	-497.9828491210938	-617.5151977539062	827.3614501953125	-457.7055969238281	-670.3466186523438	796.7117919921875	-529.4090576171875	-658.0654296875	935.9078369140625	-524.3153076171875	-631.791748046875	670.3856811523438	-449.4757690429688	-655.2534790039062	741.2634887695312	-515.2032470703125	-606.6434326171875	748.3628540039062	-471.53662109375	-801.4608154296875	1355.764038085938	-155.6000366210938	-835.0787963867188	1287.893798828125	-106.3838272094727	-829.6498413085938	1019.781921386719	-58.93257904052734	-871.4171752929688	1000.834045410156	-107.4104766845703	-707.4341430664062	827.4104614257812	-71.7530517578125	-788.5823364257812	798.7622680664062	-38.711181640625	-822.1128540039062	965.3927612304688	-50.80270385742188	-693.1722412109375	668.5790405273438	-70.01099395751953	-690.2263793945312	734.7906494140625	-44.5713996887207	-760.15869140625	726.8779907226562	-33.59102249145508	-799.9810180664062	1511.350463867188	-218.9015960693359	-623.5866088867188	1578.546142578125	-286.4203796386719	-680.459716796875	1563.509155273438	-173.3645477294922	-741.63037109375	1527.242309570312	-366.7469177246094	-667.9242553710938	874.3057861328125	-457.1099853515625	-809.9942016601562	869.9387817382812	-106.3851928710938	-693.4857788085938	913.496337890625	-133.9093627929688	-608.591552734375	908.805908203125	-360.450439453125	-693.8133544921875	451.7805480957031	-425.2123413085938	-658.1448974609375	608.777099609375	-430.6187438964844	-993.3989868164062	160.7566375732422	-558.2173461914062	-786.2000732421875	341.0031433105469	-475.0559387207031	-887.158203125	35.31400680541992	-464.6388854980469	-948.29345703125	70.67920684814453	-447.0414733886719	-922.3394775390625	77.65482330322266	-550.7310180664062	-1043.185302734375	189.6291656494141	-507.4002685546875	-719.6593627929688	485.5534362792969	-132.0163879394531	-771.0260620117188	740.9269409179688	-91.09740447998047	-754.1832885742188	49.9921875	-176.5422973632812	-694.7464599609375	338.7556762695312	-141.3037567138672	-550.361328125	42.6321907043457	-146.5247497558594	-598.828369140625	47.23384475708008	-204.8937225341797	-653.548095703125	45.9725341796875	-123.9538421630859	-785.4544677734375	39.26230239868164	-239.2480010986328	
